#!OML:ASF F:\VICON\USERDATA\INSTALL\rory3\rory3.ASF
:FULLY-SPECIFIED
:DEGREES
111
root 0.0971495 18.2311 -9.12336 -3.73957 -2.01445 -6.36025
lowerback 9.37492 -0.0406559 3.90857
upperback 0.446566 0.536784 3.51758
thorax -4.79922 0.216286 1.39752
lowerneck -16.0301 -2.9875 -0.920909
upperneck 20.1021 -3.7781 -0.602772
head 8.9508 -1.91021 -0.518132
rclavicle 7.04443e-015 2.54444e-014
rhumerus -34.4282 -11.2551 -80.0631
rradius 27.2472
rwrist 2.74584
rhand -14.7701 16.6093
rfingers 7.12502
rthumb 11.3864 -13.0615
lclavicle 7.04443e-015 2.54444e-014
lhumerus -37.4755 -2.94259 84.1294
lradius 34.3016
lwrist 2.71634
lhand -21.7191 35.8303
lfingers 7.12502
lthumb 4.68003 65.7586
rfemur -11.1243 7.06473 32.2513
rtibia 29.4473
rfoot -11.7676 -4.64312
rtoes -1.58733
lfemur -15.9214 2.10233 -12.695
ltibia 70.6037
lfoot -13.0741 -14.096
ltoes -47.3734
112
root 0.0989542 18.2266 -8.96239 -3.67672 -2.23898 -6.3199
lowerback 9.37502 0.141136 4.06583
upperback 0.476053 0.7855 3.35316
thorax -4.76272 0.334486 1.10394
lowerneck -16.0234 -3.08977 -0.794876
upperneck 20.0365 -3.94316 -0.640446
head 8.92332 -1.98213 -0.570902
rclavicle 1.28278e-014 -1.74931e-014
rhumerus -33.926 -11.3973 -80.1637
rradius 27.1291
rwrist 3.04877
rhand -15.001 16.9645
rfingers 7.12502
rthumb 11.1638 -12.7186
lclavicle 1.28278e-014 -1.74931e-014
lhumerus -37.5058 -3.19058 84.2577
lradius 34.1944
lwrist 2.93881
lhand -20.7311 36.1608
lfingers 7.12502
lthumb 5.63396 66.0659
rfemur -10.5285 7.04714 32.2516
rtibia 29.2735
rfoot -12.3181 -4.75312
rtoes -0.593814
lfemur -16.7491 2.15953 -12.6937
ltibia 70.6542
lfoot -2.33674 -9.15934
ltoes -17.9135
113
root 0.101913 18.2215 -8.79599 -3.72183 -2.36875 -6.18364
lowerback 9.27088 0.252068 4.01626
upperback 0.568294 0.911588 3.26336
thorax -4.6054 0.39952 1.02102
lowerneck -15.902 -3.04951 -0.829095
upperneck 19.9153 -3.88989 -0.589242
head 8.86154 -1.95479 -0.53756
rclavicle -5.6343e-015 -2.26615e-014
rhumerus -33.4049 -11.2099 -80.2811
rradius 27.1617
rwrist 3.03598
rhand -15.0428 17.2351
rfingers 7.12502
rthumb 11.1235 -12.4501
lclavicle -5.6343e-015 -2.26615e-014
lhumerus -37.6221 -3.13297 84.443
lradius 33.9832
lwrist 3.40238
lhand -22.8696 30.4428
lfingers 7.12502
lthumb 3.56904 60.3927
rfemur -10.1301 6.79479 32.1674
rtibia 29.5428
rfoot -12.8618 -4.68122
rtoes -1.89958
lfemur -17.6739 2.22413 -12.8583
ltibia 70.5421
lfoot -5.06874 -8.42956
ltoes -10.4851
114
root 0.0999716 18.1949 -8.6456 -3.72381 -2.60502 -6.49927
lowerback 9.3172 0.314045 4.3212
upperback 0.670695 1.02597 3.32215
thorax -4.51902 0.452205 0.896283
lowerneck -16.1424 -2.9157 -0.93243
upperneck 20.0138 -3.70704 -0.448011
head 8.94438 -1.86016 -0.455748
rclavicle -2.17296e-014 -2.38542e-014
rhumerus -32.8809 -10.4763 -80.6529
rradius 27.4746
rwrist 2.45401
rhand -14.6103 18.4618
rfingers 7.12502
rthumb 11.5406 -11.2005
lclavicle -2.17296e-014 -2.38542e-014
lhumerus -37.7921 -3.06126 84.5753
lradius 34.2794
lwrist 4.46548
lhand -24.0497 29.2842
lfingers 7.12502
lthumb 2.42933 59.2501
rfemur -9.76431 6.68385 32.6194
rtibia 29.8394
rfoot -13.3633 -4.61142
rtoes -3.60138
lfemur -18.7489 2.52921 -12.4412
ltibia 70.3392
lfoot -6.11815 -8.11079
ltoes -15.6674
115
root 0.0966412 18.1755 -8.50455 -3.71803 -2.96038 -6.76767
lowerback 9.56317 0.442358 4.62509
upperback 0.711019 1.24497 3.35268
thorax -4.60585 0.553364 0.727738
lowerneck -16.261 -2.90162 -1.10814
upperneck 19.9901 -3.67359 -0.297948
head 8.96471 -1.8409 -0.373509
rclavicle 3.6154e-015 1.07344e-014
rhumerus -32.5125 -9.84808 -80.9562
rradius 27.8388
rwrist 1.87729
rhand -14.1795 19.8776
rfingers 7.12502
rthumb 11.956 -9.76096
lclavicle 3.6154e-015 1.07344e-014
lhumerus -37.9251 -2.76831 84.5296
lradius 34.6535
lwrist 4.37486
lhand -22.7514 31.3441
lfingers 7.12502
lthumb 3.68312 61.292
rfemur -9.1903 6.92939 33.0045
rtibia 30.1029
rfoot -14.0297 -4.62165
rtoes -3.30878
lfemur -19.824 2.90865 -12.0787
ltibia 69.9752
lfoot -6.6502 -8.01148
ltoes -19.4622
116
root 0.0976853 18.1592 -8.34991 -3.67962 -3.26982 -6.74027
lowerback 9.64934 0.638858 4.72007
upperback 0.693714 1.51756 3.23213
thorax -4.66084 0.683669 0.51155
lowerneck -16.0492 -3.00921 -1.02005
upperneck 19.7248 -3.83943 -0.325746
head 8.8331 -1.91652 -0.411122
rclavicle -1.43684e-014 -3.18055e-014
rhumerus -32.2781 -9.47081 -81.1869
rradius 28.1326
rwrist 1.30795
rhand -14.1198 20.2646
rfingers 7.12502
rthumb 12.0136 -9.37059
lclavicle -1.43684e-014 -3.18055e-014
lhumerus -38.1093 -2.92146 84.5661
lradius 34.6694
lwrist 4.91467
lhand -22.7776 28.9713
lfingers 7.12502
lthumb 3.65787 58.9196
rfemur -8.66096 7.05085 33.0329
rtibia 30.365
rfoot -14.7876 -4.54425
rtoes -2.97485
lfemur -21.0026 3.18761 -12.1097
ltibia 69.4252
lfoot -7.13884 -7.61733
ltoes -20.8159
117
root 0.0985843 18.1389 -8.19249 -3.62005 -3.39098 -6.88315
lowerback 9.76567 0.822803 4.98402
upperback 0.642192 1.79635 3.11361
thorax -4.76143 0.812081 0.201098
lowerneck -16.1549 -3.10743 -0.70977
upperneck 19.8348 -4.02742 -0.44974
head 8.8804 -1.99386 -0.530272
rclavicle -4.84538e-015 -3.97569e-015
rhumerus -32.0202 -9.30903 -81.3847
rradius 28.3859
rwrist 0.943273
rhand -14.0277 20.1961
rfingers 7.12502
rthumb 12.1024 -9.43393
lclavicle -4.84538e-015 -3.97569e-015
lhumerus -38.1519 -3.35837 84.6884
lradius 34.5177
lwrist 5.52533
lhand -22.4961 28.2681
lfingers 7.12502
lthumb 3.92976 58.2116
rfemur -8.19808 7.17499 33.2758
rtibia 30.5527
rfoot -15.3848 -4.77167
rtoes -3.46251
lfemur -22.2535 3.30412 -11.9577
ltibia 68.727
lfoot -7.90822 -7.30519
ltoes -19.6565
118
root 0.102303 18.1277 -8.03774 -3.58128 -3.3842 -6.94103
lowerback 9.90736 0.857857 5.13315
upperback 0.553289 1.87344 3.07496
thorax -4.92599 0.842059 0.064073
lowerneck -16.0907 -3.12688 -0.685935
upperneck 19.918 -4.03504 -0.567751
head 8.89395 -2.00838 -0.574964
rclavicle -9.05091e-015 -7.35503e-015
rhumerus -31.8134 -8.84537 -81.5512
rradius 28.7751
rwrist 0.676109
rhand -13.9745 19.884
rfingers 7.12502
rthumb 12.1537 -9.74296
lclavicle -9.05091e-015 -7.35503e-015
lhumerus -38.4069 -3.15102 84.7062
lradius 34.6524
lwrist 4.77502
lhand -19.615 33.8336
lfingers 7.12502
lthumb 6.71151 63.7072
rfemur -7.6799 7.15105 33.3862
rtibia 30.645
rfoot -16.0012 -4.95175
rtoes -3.89192
lfemur -23.2877 3.23252 -11.9466
ltibia 67.8373
lfoot -8.21678 -6.84352
ltoes -21.2939
119
root 0.109285 18.1181 -7.88135 -3.47477 -3.55018 -6.98545
lowerback 9.84983 0.919338 5.35594
upperback 0.567249 1.96958 2.98249
thorax -4.865 0.884898 -0.168706
lowerneck -15.9895 -3.08634 -0.696221
upperneck 19.7922 -3.99065 -0.501272
head 8.83422 -1.98189 -0.541786
rclavicle -1.0753e-014 -3.26007e-014
rhumerus -31.4053 -8.48997 -81.7686
rradius 29.1019
rwrist 0.457816
rhand -14.1244 19.7216
rfingers 7.12502
rthumb 12.0092 -9.91382
lclavicle -1.0753e-014 -3.26007e-014
lhumerus -38.7102 -3.0516 84.6658
lradius 34.9036
lwrist 4.51931
lhand -19.1829 34.4897
lfingers 7.12502
lthumb 7.12857 64.3496
rfemur -7.1825 7.06614 33.4407
rtibia 30.6524
rfoot -16.6008 -4.89286
rtoes -4.35783
lfemur -24.1846 3.39936 -11.9599
ltibia 66.8433
lfoot -9.20225 -5.82167
ltoes -21.3224
120
root 0.115698 18.109 -7.72446 -3.40122 -3.86277 -7.06197
lowerback 9.79188 1.07587 5.61614
upperback 0.712707 2.18708 2.87818
thorax -4.65702 0.9921 -0.449155
lowerneck -16.137 -3.04598 -0.77013
upperneck 19.6002 -3.96174 -0.277989
head 8.80205 -1.94963 -0.450893
rclavicle 2.76932e-014 1.64991e-014
rhumerus -30.7659 -8.26105 -81.9828
rradius 29.3653
rwrist 0.11226
rhand -14.0475 20.024
rfingers 7.12502
rthumb 12.0833 -9.60713
lclavicle 2.76932e-014 1.64991e-014
lhumerus -38.6333 -3.31815 84.815
lradius 34.7968
lwrist 5.53467
lhand -22.2864 28.8766
lfingers 7.12502
lthumb 4.13225 58.8162
rfemur -6.67078 7.18428 33.5565
rtibia 30.668
rfoot -17.0941 -4.86864
rtoes -4.31145
lfemur -24.9591 3.64057 -11.9226
ltibia 65.773
lfoot -9.84685 -5.24368
ltoes -21.2029
121
root 0.119647 18.0947 -7.5739 -3.36074 -3.99327 -7.20657
lowerback 9.86531 1.16857 5.81381
upperback 0.743417 2.33583 2.87859
thorax -4.65126 1.06185 -0.579936
lowerneck -16.1364 -3.07913 -0.87502
upperneck 19.5011 -3.99103 -0.224291
head 8.77172 -1.96569 -0.417915
rclavicle -3.82039e-015 1.37161e-014
rhumerus -30.3577 -7.92353 -82.0424
rradius 29.6782
rwrist -0.186168
rhand -13.6212 20.7907
rfingers 7.12502
rthumb 12.4943 -8.81582
lclavicle -3.82039e-015 1.37161e-014
lhumerus -38.5229 -3.29177 84.9551
lradius 34.488
lwrist 5.69964
lhand -23.1194 28.1876
lfingers 7.12502
lthumb 3.32775 58.1414
rfemur -6.15426 7.2995 33.768
rtibia 30.6973
rfoot -17.5374 -5.04226
rtoes -4.57779
lfemur -25.9227 3.64763 -11.7838
ltibia 64.5401
lfoot -9.97916 -4.8036
ltoes -20.252
